HIERARCHY
ROOT Hips
{
	OFFSET -14.64140 90.27770 -84.91600
	CHANNELS 6 Xposition Yposition Zposition Zrotation Xrotation Yrotation
	JOINT Spine
	{
		OFFSET 0.00000 13.20850 -1.60436
		CHANNELS 3 Zrotation Xrotation Yrotation
		JOINT Spine1
		{
			OFFSET 0.00000 8.61716 0.00000
			CHANNELS 3 Zrotation Xrotation Yrotation
			JOINT Spine2
			{
				OFFSET 0.00000 8.61717 0.00000
				CHANNELS 3 Zrotation Xrotation Yrotation
				JOINT Spine3
				{
					OFFSET 0.00000 8.61717 0.00000
					CHANNELS 3 Zrotation Xrotation Yrotation
					JOINT Neck
					{
						OFFSET 0.00000 11.07920 1.10792
						CHANNELS 3 Zrotation Xrotation Yrotation
						JOINT Neck1
						{
							OFFSET 0.00000 7.08032 0.00000
							CHANNELS 3 Zrotation Xrotation Yrotation
							JOINT Head
							{
								OFFSET 0.00000 7.08031 0.00000
								CHANNELS 3 Zrotation Xrotation Yrotation
								End site
								{
									OFFSET 0.00000 0.00000 0.00000
								}
							}
						}
					}
					JOINT RightShoulder
					{
						OFFSET -0.01000 7.91373 5.19711
						CHANNELS 3 Zrotation Xrotation Yrotation
						JOINT RightArm
						{
							OFFSET -18.41580 0.00000 0.00000
							CHANNELS 3 Zrotation Xrotation Yrotation
							JOINT RightForeArm
							{
								OFFSET -29.11090 0.00000 0.00000
								CHANNELS 3 Zrotation Xrotation Yrotation
								JOINT RightHand
								{
									OFFSET -24.65040 0.00000 0.00000
									CHANNELS 3 Zrotation Xrotation Yrotation
									JOINT RightHandThumb1
									{
										OFFSET -5.35114 -0.85590 3.97906
										CHANNELS 3 Zrotation Xrotation Yrotation
										JOINT RightHandThumb2
										{
											OFFSET -4.52789 0.00000 0.00000
											CHANNELS 3 Zrotation Xrotation Yrotation
											JOINT RightHandThumb3
											{
												OFFSET -2.46976 0.00000 0.00000
												CHANNELS 3 Zrotation Xrotation Yrotation
												End site
												{
													OFFSET 0.00000 0.00000 0.00000
												}
											}
										}
									}
									JOINT RightHandIndex1
									{
										OFFSET -14.26970 0.00000 2.88139
										CHANNELS 3 Zrotation Xrotation Yrotation
										JOINT RightHandIndex2
										{
											OFFSET -5.48836 0.00000 0.00000
											CHANNELS 3 Zrotation Xrotation Yrotation
											JOINT RightHandIndex3
											{
												OFFSET -3.01859 0.00000 0.00000
												CHANNELS 3 Zrotation Xrotation Yrotation
												End site
												{
													OFFSET 0.00000 0.00000 0.00000
												}
											}
										}
									}
									JOINT RightHandMiddle1
									{
										OFFSET -14.26970 0.00000 -0.09147
										CHANNELS 3 Zrotation Xrotation Yrotation
										JOINT RightHandMiddle2
										{
											OFFSET -6.17441 0.00000 0.00000
											CHANNELS 3 Zrotation Xrotation Yrotation
											JOINT RightHandMiddle3
											{
												OFFSET -3.56743 0.00000 0.00000
												CHANNELS 3 Zrotation Xrotation Yrotation
												End site
												{
													OFFSET 0.00000 0.00000 0.00000
												}
											}
										}
									}
									JOINT RightHandRing1
									{
										OFFSET -12.69180 0.00000 -3.06433
										CHANNELS 3 Zrotation Xrotation Yrotation
										JOINT RightHandRing2
										{
											OFFSET -5.62556 0.00000 0.00000
											CHANNELS 3 Zrotation Xrotation Yrotation
											JOINT RightHandRing3
											{
												OFFSET -3.56744 0.00000 0.00000
												CHANNELS 3 Zrotation Xrotation Yrotation
												End site
												{
													OFFSET 0.00000 0.00000 0.00000
												}
											}
										}
									}
									JOINT RightHandPinky1
									{
										OFFSET -11.11390 0.00000 -6.03719
										CHANNELS 3 Zrotation Xrotation Yrotation
										JOINT RightHandPinky2
										{
											OFFSET -4.52789 0.00000 0.00000
											CHANNELS 3 Zrotation Xrotation Yrotation
											JOINT RightHandPinky3
											{
												OFFSET -2.46976 0.00000 0.00000
												CHANNELS 3 Zrotation Xrotation Yrotation
												End site
												{
													OFFSET 0.00000 0.00000 0.00000
												}
											}
										}
									}
								}
							}
						}
					}
					JOINT LeftShoulder
					{
						OFFSET 0.01000 7.91373 5.19711
						CHANNELS 3 Zrotation Xrotation Yrotation
						JOINT LeftArm
						{
							OFFSET 18.41580 0.00000 0.00000
							CHANNELS 3 Zrotation Xrotation Yrotation
							JOINT LeftForeArm
							{
								OFFSET 29.11090 0.00000 0.00000
								CHANNELS 3 Zrotation Xrotation Yrotation
								JOINT LeftHand
								{
									OFFSET 24.65040 0.00000 0.00000
									CHANNELS 3 Zrotation Xrotation Yrotation
									JOINT LeftHandThumb1
									{
										OFFSET 5.35114 -0.85590 3.97906
										CHANNELS 3 Zrotation Xrotation Yrotation
										JOINT LeftHandThumb2
										{
											OFFSET 4.52789 0.00000 0.00000
											CHANNELS 3 Zrotation Xrotation Yrotation
											JOINT LeftHandThumb3
											{
												OFFSET 2.46977 0.00000 0.00000
												CHANNELS 3 Zrotation Xrotation Yrotation
												End site
												{
													OFFSET 0.00000 0.00000 0.00000
												}
											}
										}
									}
									JOINT LeftHandIndex1
									{
										OFFSET 14.26970 0.00000 2.88139
										CHANNELS 3 Zrotation Xrotation Yrotation
										JOINT LeftHandIndex2
										{
											OFFSET 5.48836 0.00000 0.00000
											CHANNELS 3 Zrotation Xrotation Yrotation
											JOINT LeftHandIndex3
											{
												OFFSET 3.01859 0.00000 0.00000
												CHANNELS 3 Zrotation Xrotation Yrotation
												End site
												{
													OFFSET 0.00000 0.00000 0.00000
												}
											}
										}
									}
									JOINT LeftHandMiddle1
									{
										OFFSET 14.26970 0.00000 -0.09147
										CHANNELS 3 Zrotation Xrotation Yrotation
										JOINT LeftHandMiddle2
										{
											OFFSET 6.17440 0.00000 0.00000
											CHANNELS 3 Zrotation Xrotation Yrotation
											JOINT LeftHandMiddle3
											{
												OFFSET 3.56744 0.00000 0.00000
												CHANNELS 3 Zrotation Xrotation Yrotation
												End site
												{
													OFFSET 0.00000 0.00000 0.00000
												}
											}
										}
									}
									JOINT LeftHandRing1
									{
										OFFSET 12.69180 0.00000 -3.06433
										CHANNELS 3 Zrotation Xrotation Yrotation
										JOINT LeftHandRing2
										{
											OFFSET 5.62556 0.00000 0.00000
											CHANNELS 3 Zrotation Xrotation Yrotation
											JOINT LeftHandRing3
											{
												OFFSET 3.56744 0.00000 0.00000
												CHANNELS 3 Zrotation Xrotation Yrotation
												End site
												{
													OFFSET 0.00000 0.00000 0.00000
												}
											}
										}
									}
									JOINT LeftHandPinky1
									{
										OFFSET 11.11390 0.00000 -6.03719
										CHANNELS 3 Zrotation Xrotation Yrotation
										JOINT LeftHandPinky2
										{
											OFFSET 4.52789 0.00000 0.00000
											CHANNELS 3 Zrotation Xrotation Yrotation
											JOINT LeftHandPinky3
											{
												OFFSET 2.46976 0.00000 0.00000
												CHANNELS 3 Zrotation Xrotation Yrotation
												End site
												{
													OFFSET 0.00000 0.00000 0.00000
												}
											}
										}
									}
								}
							}
						}
					}
					JOINT pCube4
					{
						OFFSET 0.00000 10.91090 1.10792
						CHANNELS 3 Zrotation Xrotation Yrotation
						End site
						{
							OFFSET 0.00000 0.00000 0.00000
						}
					}
				}
			}
		}
	}
	JOINT RightUpLeg
	{
		OFFSET -9.98441 0.00000 0.00000
		CHANNELS 3 Zrotation Xrotation Yrotation
		JOINT RightLeg
		{
			OFFSET 0.00000 -42.11790 0.00000
			CHANNELS 3 Zrotation Xrotation Yrotation
			JOINT RightFoot
			{
				OFFSET 0.00000 -45.00020 -0.00001
				CHANNELS 3 Zrotation Xrotation Yrotation
				JOINT RightForeFoot
				{
					OFFSET 0.00000 -3.74820 0.00000
					CHANNELS 3 Zrotation Xrotation Yrotation
					JOINT RightToeBase
					{
						OFFSET 0.00000 0.06325 14.43120
						CHANNELS 3 Zrotation Xrotation Yrotation
						End site
						{
							OFFSET 0.00000 0.00000 0.00000
						}
					}
				}
			}
		}
	}
	JOINT LeftUpLeg
	{
		OFFSET 9.98441 0.00000 0.00000
		CHANNELS 3 Zrotation Xrotation Yrotation
		JOINT LeftLeg
		{
			OFFSET 0.00000 -42.11800 0.00000
			CHANNELS 3 Zrotation Xrotation Yrotation
			JOINT LeftFoot
			{
				OFFSET 0.00000 -45.00070 0.00000
				CHANNELS 3 Zrotation Xrotation Yrotation
				JOINT LeftForeFoot
				{
					OFFSET 0.00000 -3.74824 0.00000
					CHANNELS 3 Zrotation Xrotation Yrotation
					JOINT LeftToeBase
					{
						OFFSET 0.00000 0.06325 14.43110
						CHANNELS 3 Zrotation Xrotation Yrotation
						End site
						{
							OFFSET 0.00000 0.00000 0.00000
						}
					}
				}
			}
		}
	}
}
MOTION
Frames: 4
Frame Time: 0.050000
-0.003799310993218129 0.02137320165110757 -0.027740873739998596 -0.03722369044363246 -0.009475821086918478 -0.005419105020414473 -0.06430055286603632 3.1452600721380355 -1.3157353405079342 -0.4650237253153987 3.4168639923197115 0.3289713735321953 -0.5035189236790005 -1.268428166623574 -1.6066319039956098 -0.8949771290356235 -0.6503288319967149 -0.7510011863940065 -1.4341540460200655 10.893995794837334 2.346419830495195 0.09406469443118702 -0.5959248822979403 5.730321593945021 -0.5373144508195153 -15.441544924939377 0.5181614111955548 -1.8130305464418661 1.4059600781141453 -12.844592918721228 70.5192107419903 5.828128243106086 14.383076319646074 -0.899379145075972 8.633939821302889 83.39781939945598 21.23589299758843 -0.37220029215218003 -2.727470986401739 4.533514950927191 -0.17097632068080298 -1.6090182368919397 0.01993352290722599 0.03274241313158384 -56.25150884387036 -0.03296079241165745 0.007616686889673062 -56.26038824961394 -38.73900253836451 0.03429066504983291 -0.012279301297996882 0.002604215521489605 -0.009619613111599928 -0.017219893019682585 0.018517490915066628 -0.0384210806157526 0.04116971006709735 -36.72208440891824 -0.04508784420369991 0.015126246001905808 0.002005822909684871 0.037224952414903784 -0.027356609465448056 0.02209605368382179 0.025945489246477774 0.040758096572748474 -19.745035296183715 -0.0018995144630140199 -0.01549969995897717 -0.034638614267226836 -0.006496321158133698 0.04089797157002288 -0.01939540503383923 0.0345201137272661 -0.024026120466429695 24.06951485938197 0.002474408482110723 -0.03963396620178737 28.876407609486076 -0.003398542768097654 -0.02480717656680102 28.82527146808575 0.04810996976343241 -0.037779758510770534 7.886038757050997 2.0776738684786937 11.206072121083857 -63.44560070409824 13.409612011344551 -36.68156601092837 11.979584952168075 -7.934997591678209 -70.31067305593966 -19.454944063219568 -0.135419140090189 2.19619132643119 -0.4314779200728758 0.05529237325348487 -8.139340510234334 -0.015596785665685403 -0.04314539476456225 44.539208020011834 -0.006997740027321743 0.0255023587125205 44.56574833737758 12.459632733414157 0.044321946665277764 0.012859061841518141 -0.0229285969848433 -0.00545350955766533 0.04465306060771986 -0.029844907966163865 -0.0011177140608139994 -0.035632104104588044 11.147217206598171 -0.01539048467870576 0.032782556263865455 0.011823926925174184 -0.014949484791876487 0.01863402657663156 0.009204033965280186 0.04346300894912921 -0.03520851111864229 4.736213597229885 0.0022027260942920563 -0.01719457664194285 0.0374727678005204 -0.027383346386190062 0.01597451239123454 -0.0033989070280707133 0.007844971692544172 -0.025741634101801414 -5.565124891291613 -0.023737457279839627 0.019696087026595158 -6.740863812566233 -0.0022544628523429263 0.009212028010646484 -6.724270193476144 0.019699869508872175 0.04540152898829299 0.024936033205671684 -0.02256240221481001 0.017388383500534545 8.04241907167132 3.475074102322103 -19.19009028916391 0.018313963415021926 10.370626330305935 -0.0008920736642345599 -5.633399720154496 -15.614386218891706 3.156077978865731 0.015444836421717486 0.02440709420859852 -0.034640923701942765 -0.020477962299782992 4.70171662989219 -0.01781791617158219 12.429949760341948 -8.226817029497584 6.8336058293162365 0.03379326915063431 46.40990233333797 -0.01914163872611946 -4.354135860856697 -14.743760954222738 -3.8760770277746235 -0.012942132898937564 -0.04601977727757926 -0.0286111579784716 0.002048318275729167 -10.794770778181238 -0.02055803059123361 
0.012447388104775449 -0.014064771549610281 0.04261136081964257 0.030067553262107267 0.03448158812357466 -0.03147189405151928 -0.1576258698386091 3.2863085019309914 -1.2887862302971669 -0.5041841306802068 3.383300984127745 0.2642801163007435 -0.5255143358061006 -1.1934838084565214 -1.691579498523098 -0.7996290548539104 -0.6124837167191123 -0.7591495458491793 -1.5132379270313303 10.66478250085038 2.449215376635839 0.10230363554978886 -0.6507912523687289 5.930937845926225 -0.6707866212873977 -15.614263948352827 0.4820318782957084 -1.7052220649461043 1.3475621343968716 -12.791982189257427 70.70471051290627 5.005426011142605 13.912836246815607 -1.4321751258978348 8.577041627170704 82.60237246214362 20.608781195427255 -0.38760587530889634 -2.439546694320355 4.5323159339533285 -0.10466640088578924 -1.5958040732313672 -0.0014894184391779296 0.038796927697680186 -56.20517630691975 0.04316106242848284 -0.009309788228575226 -56.26719579672625 -38.79930751428129 -0.04706544846387225 0.0018612293604407812 -0.004204605485346438 -0.04723944542106349 0.025482433930717748 -0.03303531073326159 0.044283454533864036 0.03062741898357832 -36.7292087109568 0.003983138501567043 0.0344271807925005 -0.04806888538337167 -0.046682494843833626 -0.00388212974573435 0.01672251917725154 -0.02209543652389834 -0.0021641804595729994 -19.79815813354741 0.017741187626093235 -0.027139492727679525 0.022588854828471477 0.03817011617224 0.0012895551437801917 0.044777539716551074 -0.03751522329647166 -0.012598203208775954 24.01641153961403 -0.04030311563593816 0.045321468790885236 28.88436611286238 -0.014616283898752427 -0.004833872430474986 28.891791705563282 -0.02333913939109641 -0.04792301880965799 7.605186804100167 1.9845084226975276 11.045843624071365 -63.349455187527305 14.209559763255434 -35.99052696612222 12.82715427430015 -8.588643334156359 -69.76266566102657 -18.480508123626805 -0.2515956572018234 2.5509147982983698 -0.4535778596606694 0.039214370925478664 -8.128133246063785 -0.046216184560554145 0.0036823697385820176 44.597408589733156 0.041512975704728276 -0.027440135315529753 44.519744245029926 12.50256762245894 0.012173124428542495 0.016908538081051673 -0.0191651210024755 0.01109133864231852 0.016757802501993976 0.0357857132202563 -0.016287367607624104 0.012653476364737286 11.075175052877322 0.028933967796552856 0.044597634904200094 -0.04788458682971438 0.047458452825326465 0.03683942185436479 0.015690994001184653 0.04308409738564065 -0.0006027881661111542 4.785082679496214 -0.01991220299673318 -0.01959245984557065 0.0010392872494320719 -0.046548388819560305 0.049246064701510495 0.041487091147774394 0.026398964637298565 0.038482474312536014 -5.583589638135676 0.007933549429461027 0.004934048184345649 -6.741924471921293 -0.010418961710212619 -0.04898153644906501 -6.701644593664763 0.02599198668009033 -0.008705223839713819 0.0046172751986926705 0.016603448528516664 0.033297407938622306 8.071895088993065 3.492678183099697 -19.19527532617181 0.048643263264507255 10.430171391979648 0.027374226723314944 -5.59813099122041 -15.666619298423921 3.2236565959294246 0.033044629941204155 0.01136639883447115 0.04419631815351953 0.022023881825204785 4.723666932836289 0.04183923145122866 12.475560658425492 -8.281114999266338 6.92431861920487 -0.02141061106514141 46.3935214357606 -0.01697543166647006 -4.358190985996732 -14.722875776948293 -3.807448704047356 0.013270003662634252 -0.024248787108260877 -0.0026981321920779467 -0.02406985868978688 -10.754313137691508 0.012101123549046808 
0.022624086788764507 0.04146104157721804 0.02677791613819705 -0.025743443079375445 0.01731063334173051 0.029135652430292203 -0.2440025824978838 3.3192880493448476 -1.3122658757235048 -0.5201397667557223 3.341330458215246 0.2517911774394159 -0.49343602949234333 -1.1662231372234406 -1.8418401226984633 -0.8915286033682865 -0.5886063219843857 -0.8436808251432965 -1.5092491391696392 10.515220685110124 2.610653287177916 0.12059029078693806 -0.7356146240725829 6.34677464712146 -0.6405378776914772 -15.733397593678301 0.5613659675007607 -1.6265748574535992 1.4014188168193722 -12.733092925804893 70.74106338381108 3.9624083105719756 13.526143748979209 -2.2438769639427085 8.6892317145941 81.2302531879706 20.89986493715772 -0.3734247377117886 -2.1091810844428056 4.4926493250024055 -0.07814881769638471 -1.573996530550242 0.04579142411935292 -0.03675324385208331 -56.24841169660742 0.00010392465831627345 -0.0023767525246966145 -56.18638175350404 -38.79798420558388 -0.022402572540458132 -0.045028274351101044 0.04268037005440295 -0.013282636057451242 -0.045675914173791035 -0.01710136007491251 0.015156364818958958 -0.014594552156134245 -36.68995585273749 0.00914334156910687 -0.007935752076611059 0.0105491184508231 -0.0021220617297420317 0.014067548818392814 -0.049830814170604365 0.031792519015200464 -0.014335482572341239 -19.743952388873648 0.02250386517466157 0.024600323335500326 0.020068563187956787 -0.005149101122674438 0.03721664676934841 0.021867297391813235 0.016260515893576574 -0.031125390689620863 24.02903664799077 0.047654099219035496 -0.03428124116335339 28.858690889725583 -0.007587785392993234 -0.023607086862389066 28.897896823279105 -0.01514640230902171 -0.018090229126757226 7.470881243402936 1.9706898849520285 10.94441066348864 -63.98556372505989 14.37705212875845 -35.2521039124897 11.679006734915504 -8.01681778659888 -68.17296496436616 -18.615312919740955 -0.23677850588383614 2.8825962807200933 -0.48857976650732743 0.06443234226302431 -8.157540847747484 -0.010828691671372747 -0.012672913725926717 44.55291390477934 0.021014984045449842 -0.04296234737258065 44.519294172209364 12.479685795102352 0.04858962694668261 0.02214070367365151 -0.04853795966629417 -0.017079374339503968 -0.015156710516063342 -0.015777472065898426 0.0333747582114512 -0.025792247455967327 11.076087118868525 0.035833792139623295 -0.032424030985076964 -0.01349121178439406 -0.02964259219984285 0.023822441541258482 0.03456114975746913 -0.04336947184125936 0.006820654889926667 4.7345378443124755 -0.01342000539952521 0.00036729970887455744 -0.01050792779149971 -0.02557387823295157 0.023350761124882487 0.04561014548453441 0.04304729198032545 0.027265594782889646 -5.574076426931822 -0.023884381997235728 -0.00270734911286618 -6.676535711706286 -0.02480514052181219 -0.011985660676776805 -6.769972080875988 0.016450819322259308 0.0077250365337012674 -0.006974201876864241 -0.02123300144647862 0.0068250631414197745 8.063536688858388 3.538651149255012 -19.23892858880805 0.0016231569638091776 10.41529057986893 -0.03443171580326955 -5.6109109881717005 -15.644818109371615 3.197929683065075 -0.03444760784169243 -0.012212492171465061 0.018427529132580688 0.02583214034560534 4.677587218310472 0.017156794251663963 12.415123275790902 -8.192730596508081 6.872714843540461 -0.0010687030773004122 46.36510277881573 -0.014420669867265281 -4.284945187925994 -14.721591727281265 -3.8328928750050286 0.03458156197469575 -0.017278978349384744 0.01934003486404307 -0.031407957957704014 -10.746597774551764 -0.0002247372560101781 
-0.00888580592033709 -0.0015500187623694942 -0.049427285850559145 -0.010268838587254355 -0.04019710078070494 -0.041542528172914914 -0.2887682471969678 3.4386320078565173 -1.2148503674110334 -0.5157096362710393 3.353776294910741 0.2857015399315275 -0.5301603688625416 -1.1972827033420683 -1.8729425127259083 -0.9596395731008776 -0.7089458573273929 -0.806541586398176 -1.5662946265614568 10.513240695607939 2.6521935702012676 0.04950860602648383 -0.8738660152184762 6.5978080321470784 -0.6685462299032738 -15.85777868783458 0.5359003301283611 -1.7725150102961353 1.3982411374458956 -12.691311871376747 70.51525994715962 1.3990059847453646 13.72277658627961 -3.7006066611282904 8.568405314995912 79.39776923489245 21.198855816734795 -0.4013249151515518 -1.692509629996192 4.568422473937506 -0.1688967189539106 -1.5913466826842217 0.009980579557678204 0.03578870106581166 -56.21775463925775 0.04157174276490601 -0.022122582621893008 -56.24374089807752 -38.77425732715056 0.0016935656037365878 0.008434860957139849 -0.0029791044016027183 0.028831753174740096 -0.006819652503477336 -0.024289355254049055 0.03945199814844196 -0.017812375327169307 -36.727315959850976 0.018616599274424717 0.03291504509521999 0.00963950266624133 -0.004311520392004327 -0.04713422886869236 -0.011263756566494502 0.042735115108284684 -0.0017119868268045276 -19.771396133874244 0.014446896024159437 0.026597095193556564 0.03587896555468371 0.0012090438100712498 -0.024920252455671907 -0.04921551010553612 0.006668496816073209 0.019947797525241714 24.00760423883274 0.04609723825961569 0.040003436297949814 28.913646182759745 -0.01630348822735371 -0.016829177225918653 28.831034563499205 0.04923389571289226 0.006626277893856159 7.526003938349888 2.0379885469651033 10.844150824161574 -64.49978174969604 13.69454404735029 -35.179619593586956 10.271593514816766 -7.211260628686192 -66.56480131621338 -18.723733872191204 0.043587853682225015 2.8285669865124805 -0.43119181010569063 0.023701820428352886 -8.130271080746777 -0.0251356600448886 0.040210708202297406 44.56299338483453 0.03967341449067455 -0.02013751463588983 44.57815661005279 12.426099562540898 -0.04264174567954229 -0.04717046249503927 0.03229708763115369 -0.0387080930397962 0.01332655425355416 -0.0007538315569568627 0.007703870199312977 0.000593747822250324 11.13670269322396 -0.04371546003656525 -0.005229711202856752 -0.005879275788344816 -0.00747770830697972 0.003943779729927014 -0.04555775667425582 -0.016902108911634073 0.03966352782121425 4.810428211594025 -0.040390920425598484 -0.048709785175883355 0.03968366665522592 -0.04532945182344625 0.03521955251535086 -0.030624826419577762 0.014141871337078997 -0.022776562141861807 -5.626831954777772 0.02294907471654727 -0.02290820514992471 -6.678606771565408 -0.010842988239747534 0.042326490084814795 -6.739786387724141 -0.00308428905101154 -0.006306671885511616 0.0032088000617767547 0.008389568194111149 -0.014775804366320549 8.037096387338153 3.5192240343302665 -19.2194716109995 -0.007823109574132773 10.408122305443808 0.050437503441203485 -5.63102253940406 -15.64504289209292 3.202514985545066 0.03097440319208611 0.0413141464927384 -0.007882707822843756 -0.01826161589776822 4.7446598322268825 0.030694633090245133 12.446433925771084 -8.19729940741388 6.8964181372027635 0.01939372291879149 46.350995398266434 0.029042566843372412 -4.324862049645708 -14.790525056024743 -3.873880290714243 -0.013919300501073994 -0.034555568306078664 0.0101079852482722 -0.013802772290113412 -10.766738978155585 0.00217616748492871 
